# xmcd
#
# Track frame offsets: 
#        150
#        18333
#        33480
#        47649
#        61274
#        80249
#        96006
#        111728
#        129348
#        145516
#        162739
#        179309
#        193559
#        211634
#        238035
#        257761
#
# Disc length: 3627 seconds
#
# Revision: 1
# Processed by: cddbd v1.5.2PL0 Copyright (c) Steve Scherf et al.
# Submitted via: ExactAudioCopy v1.0b3
#
DISCID=de0e2910
DTITLE=蔡琴 - [DTS-CD]《经典收藏1》
DYEAR=2006
DGENRE=Chorus
TTITLE0=再爱我一次
TTITLE1=昨夜之灯
TTITLE2=秋瑾
TTITLE3=屈原
TTITLE4=菜根谭
TTITLE5=怎么能
TTITLE6=尘缘
TTITLE7=新娘
TTITLE8=远方
TTITLE9=零点十七分
TTITLE10=归来吧!苏莲多
TTITLE11=白发吟
TTITLE12=科罗拉多之夜
TTITLE13=摇篮曲
TTITLE14=小夜曲
TTITLE15=平安夜
EXTD=
EXTT0=
EXTT1=
EXTT2=
EXTT3=
EXTT4=
EXTT5=
EXTT6=
EXTT7=
EXTT8=
EXTT9=
EXTT10=
EXTT11=
EXTT12=
EXTT13=
EXTT14=
EXTT15=
PLAYORDER=
